{
    "accessors" : [
        {
            "bufferView" : 0, 
            "componentType" : 5121, 
            "count" : 222, 
            "max" : [
                151
            ], 
            "min" : [
                0
            ], 
            "type" : "SCALAR"
        }, 
        {
            "bufferView" : 1, 
            "componentType" : 5126, 
            "count" : 152, 
            "max" : [
                1.0, 
                2.9835171699523926, 
                1.0
            ], 
            "min" : [
                -1.0, 
                -1.0, 
                -1.0
            ], 
            "type" : "VEC3"
        }, 
        {
            "bufferView" : 2, 
            "componentType" : 5126, 
            "count" : 152, 
            "max" : [
                1.0, 
                1.0, 
                1.0
            ], 
            "min" : [
                -1.0, 
                -1.0, 
                -1.0
            ], 
            "type" : "VEC3"
        }
    ], 
    "asset" : {
        "generator" : "Khronos Blender glTF 2.0 exporter", 
        "version" : "2.0"
    }, 
    "bufferViews" : [
        {
            "buffer" : 0, 
            "byteLength" : 222, 
            "byteOffset" : 0, 
            "target" : 34963
        }, 
        {
            "buffer" : 0, 
            "byteLength" : 1824, 
            "byteOffset" : 224, 
            "target" : 34962
        }, 
        {
            "buffer" : 0, 
            "byteLength" : 1824, 
            "byteOffset" : 2048, 
            "target" : 34962
        }
    ], 
    "buffers" : [
        {
            "byteLength" : 3872, 
            "uri" : "cubehat.bin"
        }
    ], 
    "meshes" : [
        {
            "name" : "Cube", 
            "primitives" : [
                {
                    "attributes" : {
                        "NORMAL" : 2, 
                        "POSITION" : 1
                    }, 
                    "indices" : 0
                }
            ]
        }
    ], 
    "nodes" : [
        {
            "name" : "Camera", 
            "rotation" : [
                0.47814497351646423, 
                0.32801878452301025, 
                -0.19848716259002686, 
                0.7901796698570251
            ], 
            "translation" : [
                7.411277770996094, 
                4.554937839508057, 
                7.168055534362793
            ]
        }, 
        {
            "mesh" : 0, 
            "name" : "Cube", 
            "translation" : [
                0.0, 
                1.2612687349319458, 
                -0.0
            ]
        }, 
        {
            "name" : "Lamp Hemi", 
            "rotation" : [
                0.2712081968784332, 
                -0.5639394521713257, 
                0.16635987162590027, 
                0.7620648741722107
            ], 
            "translation" : [
                4.0, 
                6.0, 
                -1.0
            ]
        }, 
        {
            "name" : "Lamp Sun", 
            "rotation" : [
                0.17106777429580688, 
                0.752106785774231, 
                -0.2682635486125946, 
                0.5771534442901611
            ], 
            "translation" : [
                4.0, 
                5.0, 
                -1.0
            ]
        }
    ], 
    "scene" : 0, 
    "scenes" : [
        {
            "name" : "Scene", 
            "nodes" : [
                1, 
                3, 
                2, 
                0
            ]
        }
    ]
}
