{"accessors":[{"name":"vmd_mol1_rep0_1_positions","componentType":5126,"count":3,"min":[-0.09081599861383438,0.14980800449848175,0.2967590093612671],"max":[-0.08072999864816666,0.1530430018901825,0.3317050039768219],"type":"VEC3","bufferView":0,"byteOffset":0},{"name":"vmd_mol1_rep0_1_normals","componentType":5126,"count":3,"min":[0.9071000218391418,-0.32280001044273376,-0.27000001072883606],"max":[0.9646000266075134,-0.015399999916553497,-0.26330000162124634],"type":"VEC3","bufferView":0,"byteOffset":308316},{"name":"vmd_mol1_rep0_1_0_indices","componentType":5123,"count":480,"min":[0],"max":[2],"type":"SCALAR","bufferView":1,"byteOffset":0},{"name":"vmd_mol1_rep0_1_1_indices","componentType":5123,"count":360,"min":[0],"max":[2],"type":"SCALAR","bufferView":1,"byteOffset":960},{"name":"vmd_mol1_rep0_1_2_indices","componentType":5123,"count":360,"min":[0],"max":[2],"type":"SCALAR","bufferView":1,"byteOffset":1680},{"name":"vmd_mol1_rep0_1_3_indices","componentType":5123,"count":360,"min":[0],"max":[2],"type":"SCALAR","bufferView":1,"byteOffset":2400},{"name":"vmd_mol1_rep0_1_4_indices","componentType":5123,"count":360,"min":[0],"max":[2],"type":"SCALAR","bufferView":1,"byteOffset":3120},{"name":"vmd_mol1_rep0_1_5_indices","componentType":5123,"count":240,"min":[0],"max":[2],"type":"SCALAR","bufferView":1,"byteOffset":3840},{"name":"vmd_mol1_rep0_1_6_indices","componentType":5123,"count":360,"min":[0],"max":[2],"type":"SCALAR","bufferView":1,"byteOffset":4320},{"name":"vmd_mol1_rep0_1_7_indices","componentType":5123,"count":480,"min":[0],"max":[2],"type":"SCALAR","bufferView":1,"byteOffset":5040},{"name":"vmd_mol1_rep0_1_8_indices","componentType":5123,"count":240,"min":[0],"max":[2],"type":"SCALAR","bufferView":1,"byteOffset":6000},{"name":"vmd_mol1_rep0_1_9_indices","componentType":5123,"count":360,"min":[0],"max":[2],"type":"SCALAR","bufferView":1,"byteOffset":6480},{"name":"vmd_mol1_rep0_1_10_indices","componentType":5123,"count":480,"min":[0],"max":[2],"type":"SCALAR","bufferView":1,"byteOffset":7200},{"name":"vmd_mol1_rep0_1_11_indices","componentType":5123,"count":240,"min":[0],"max":[2],"type":"SCALAR","bufferView":1,"byteOffset":8160},{"name":"vmd_mol1_rep0_1_12_indices","componentType":5123,"count":600,"min":[0],"max":[2],"type":"SCALAR","bufferView":1,"byteOffset":8640},{"name":"vmd_mol1_rep0_1_13_indices","componentType":5123,"count":720,"min":[0],"max":[2],"type":"SCALAR","bufferView":1,"byteOffset":9840},{"name":"vmd_mol1_rep0_1_14_indices","componentType":5123,"count":240,"min":[0],"max":[2],"type":"SCALAR","bufferView":1,"byteOffset":11280},{"name":"vmd_mol1_rep0_1_15_indices","componentType":5123,"count":360,"min":[0],"max":[2],"type":"SCALAR","bufferView":1,"byteOffset":11760},{"name":"vmd_mol1_rep0_1_16_indices","componentType":5123,"count":360,"min":[0],"max":[2],"type":"SCALAR","bufferView":1,"byteOffset":12480},{"name":"vmd_mol1_rep0_1_17_indices","componentType":5123,"count":360,"min":[0],"max":[2],"type":"SCALAR","bufferView":1,"byteOffset":13200},{"name":"vmd_mol1_rep0_1_18_indices","componentType":5123,"count":360,"min":[0],"max":[2],"type":"SCALAR","bufferView":1,"byteOffset":13920},{"name":"vmd_mol1_rep0_1_19_indices","componentType":5123,"count":240,"min":[0],"max":[2],"type":"SCALAR","bufferView":1,"byteOffset":14640},{"name":"vmd_mol1_rep0_1_20_indices","componentType":5123,"count":240,"min":[0],"max":[2],"type":"SCALAR","bufferView":1,"byteOffset":15120},{"name":"vmd_mol1_rep0_1_21_indices","componentType":5123,"count":360,"min":[0],"max":[2],"type":"SCALAR","bufferView":1,"byteOffset":15600},{"name":"vmd_mol1_rep0_1_22_indices","componentType":5123,"count":120,"min":[0],"max":[2],"type":"SCALAR","bufferView":1,"byteOffset":16320},{"name":"vmd_mol1_rep0_1_23_indices","componentType":5123,"count":120,"min":[0],"max":[2],"type":"SCALAR","bufferView":1,"byteOffset":16560},{"name":"vmd_mol1_rep0_1_24_indices","componentType":5123,"count":360,"min":[0],"max":[2],"type":"SCALAR","bufferView":1,"byteOffset":16800},{"name":"vmd_mol1_rep0_1_25_indices","componentType":5123,"count":360,"min":[0],"max":[2],"type":"SCALAR","bufferView":1,"byteOffset":17520},{"name":"vmd_mol1_rep0_1_26_indices","componentType":5123,"count":120,"min":[0],"max":[2],"type":"SCALAR","bufferView":1,"byteOffset":18240},{"name":"vmd_mol1_rep0_1_27_indices","componentType":5123,"count":240,"min":[0],"max":[2],"type":"SCALAR","bufferView":1,"byteOffset":18480},{"name":"vmd_mol1_rep0_1_28_indices","componentType":5123,"count":120,"min":[0],"max":[2],"type":"SCALAR","bufferView":1,"byteOffset":18960},{"name":"vmd_mol1_rep0_1_29_indices","componentType":5123,"count":720,"min":[0],"max":[2],"type":"SCALAR","bufferView":1,"byteOffset":19200},{"name":"vmd_mol1_rep0_1_30_indices","componentType":5123,"count":360,"min":[0],"max":[2],"type":"SCALAR","bufferView":1,"byteOffset":20640},{"name":"vmd_mol1_rep0_1_31_indices","componentType":5123,"count":120,"min":[0],"max":[2],"type":"SCALAR","bufferView":1,"byteOffset":21360},{"name":"vmd_mol1_rep0_1_32_indices","componentType":5123,"count":360,"min":[0],"max":[2],"type":"SCALAR","bufferView":1,"byteOffset":21600},{"name":"vmd_mol1_rep0_1_33_indices","componentType":5123,"count":240,"min":[0],"max":[2],"type":"SCALAR","bufferView":1,"byteOffset":22320},{"name":"vmd_mol1_rep0_1_34_indices","componentType":5123,"count":360,"min":[0],"max":[2],"type":"SCALAR","bufferView":1,"byteOffset":22800},{"name":"vmd_mol1_rep0_1_35_indices","componentType":5123,"count":120,"min":[0],"max":[2],"type":"SCALAR","bufferView":1,"byteOffset":23520},{"name":"vmd_mol1_rep0_1_36_indices","componentType":5123,"count":120,"min":[0],"max":[2],"type":"SCALAR","bufferView":1,"byteOffset":23760},{"name":"vmd_mol1_rep1_1_positions","componentType":5126,"count":25690,"min":[-0.841346025466919,-0.7382749915122986,-0.6191809773445129],"max":[0.765733003616333,0.6850050091743469,0.6003689765930176],"type":"VEC3","bufferView":0,"byteOffset":36},{"name":"vmd_mol1_rep1_1_normals","componentType":5126,"count":25690,"min":[-0.9999679923057556,-0.9999610185623169,-0.9999499917030334],"max":[0.9999679923057556,0.9999610185623169,0.9999499917030334],"type":"VEC3","bufferView":0,"byteOffset":308352},{"name":"vmd_mol1_rep1_1_0_indices","componentType":5123,"count":154080,"min":[0],"max":[25689],"type":"SCALAR","bufferView":1,"byteOffset":24000}],"asset":{"generator":"obj2gltf","version":"2.0"},"buffers":[{"name":"Heme","byteLength":948792,"uri":"data:application/octet-stream;base64,"}],"bufferViews":[{"name":"bufferView_0","buffer":0,"byteLength":616632,"byteOffset":0,"byteStride":12,"target":34962},{"name":"bufferView_1","buffer":0,"byteLength":332160,"byteOffset":616632,"target":34963}],"materials":[{"name":"vmd_mat_cindex_220","pbrMetallicRoughness":{"baseColorFactor":[0.65,0.3,0.3,1],"metallicFactor":0,"roughnessFactor":0.96},"emissiveFactor":[0,0,0],"alphaMode":"OPAQUE","doubleSided":false},{"name":"vmd_mat_cindex_243","pbrMetallicRoughness":{"baseColorFactor":[0.65,0.33,0.33,1],"metallicFactor":0,"roughnessFactor":0.96},"emissiveFactor":[0,0,0],"alphaMode":"OPAQUE","doubleSided":false},{"name":"vmd_mat_cindex_266","pbrMetallicRoughness":{"baseColorFactor":[0.65,0.36,0.36,1],"metallicFactor":0,"roughnessFactor":0.96},"emissiveFactor":[0,0,0],"alphaMode":"OPAQUE","doubleSided":false},{"name":"vmd_mat_cindex_177","pbrMetallicRoughness":{"baseColorFactor":[0.65,0.25,0.25,1],"metallicFactor":0,"roughnessFactor":0.96},"emissiveFactor":[0,0,0],"alphaMode":"OPAQUE","doubleSided":false},{"name":"vmd_mat_cindex_194","pbrMetallicRoughness":{"baseColorFactor":[0.65,0.27,0.27,1],"metallicFactor":0,"roughnessFactor":0.96},"emissiveFactor":[0,0,0],"alphaMode":"OPAQUE","doubleSided":false},{"name":"vmd_mat_cindex_218","pbrMetallicRoughness":{"baseColorFactor":[0.65,0.3,0.3,1],"metallicFactor":0,"roughnessFactor":0.96},"emissiveFactor":[0,0,0],"alphaMode":"OPAQUE","doubleSided":false},{"name":"vmd_mat_cindex_254","pbrMetallicRoughness":{"baseColorFactor":[0.65,0.35,0.35,1],"metallicFactor":0,"roughnessFactor":0.96},"emissiveFactor":[0,0,0],"alphaMode":"OPAQUE","doubleSided":false},{"name":"vmd_mat_cindex_202","pbrMetallicRoughness":{"baseColorFactor":[0.65,0.28,0.28,1],"metallicFactor":0,"roughnessFactor":0.96},"emissiveFactor":[0,0,0],"alphaMode":"OPAQUE","doubleSided":false},{"name":"vmd_mat_cindex_280","pbrMetallicRoughness":{"baseColorFactor":[0.65,0.38,0.38,1],"metallicFactor":0,"roughnessFactor":0.96},"emissiveFactor":[0,0,0],"alphaMode":"OPAQUE","doubleSided":false},{"name":"vmd_mat_cindex_269","pbrMetallicRoughness":{"baseColorFactor":[0.65,0.36,0.36,1],"metallicFactor":0,"roughnessFactor":0.96},"emissiveFactor":[0,0,0],"alphaMode":"OPAQUE","doubleSided":false},{"name":"vmd_mat_cindex_273","pbrMetallicRoughness":{"baseColorFactor":[0.65,0.37,0.37,1],"metallicFactor":0,"roughnessFactor":0.96},"emissiveFactor":[0,0,0],"alphaMode":"OPAQUE","doubleSided":false},{"name":"vmd_mat_cindex_223","pbrMetallicRoughness":{"baseColorFactor":[0.65,0.31,0.31,1],"metallicFactor":0,"roughnessFactor":0.96},"emissiveFactor":[0,0,0],"alphaMode":"OPAQUE","doubleSided":false},{"name":"vmd_mat_cindex_251","pbrMetallicRoughness":{"baseColorFactor":[0.65,0.34,0.34,1],"metallicFactor":0,"roughnessFactor":0.96},"emissiveFactor":[0,0,0],"alphaMode":"OPAQUE","doubleSided":false},{"name":"vmd_mat_cindex_207","pbrMetallicRoughness":{"baseColorFactor":[0.65,0.29,0.29,1],"metallicFactor":0,"roughnessFactor":0.96},"emissiveFactor":[0,0,0],"alphaMode":"OPAQUE","doubleSided":false},{"name":"vmd_mat_cindex_186","pbrMetallicRoughness":{"baseColorFactor":[0.65,0.26,0.26,1],"metallicFactor":0,"roughnessFactor":0.96},"emissiveFactor":[0,0,0],"alphaMode":"OPAQUE","doubleSided":false},{"name":"vmd_mat_cindex_196","pbrMetallicRoughness":{"baseColorFactor":[0.65,0.27,0.27,1],"metallicFactor":0,"roughnessFactor":0.96},"emissiveFactor":[0,0,0],"alphaMode":"OPAQUE","doubleSided":false},{"name":"vmd_mat_cindex_199","pbrMetallicRoughness":{"baseColorFactor":[0.65,0.28,0.28,1],"metallicFactor":0,"roughnessFactor":0.96},"emissiveFactor":[0,0,0],"alphaMode":"OPAQUE","doubleSided":false},{"name":"vmd_mat_cindex_272","pbrMetallicRoughness":{"baseColorFactor":[0.65,0.37,0.37,1],"metallicFactor":0,"roughnessFactor":0.96},"emissiveFactor":[0,0,0],"alphaMode":"OPAQUE","doubleSided":false},{"name":"vmd_mat_cindex_265","pbrMetallicRoughness":{"baseColorFactor":[0.65,0.36,0.36,1],"metallicFactor":0,"roughnessFactor":0.96},"emissiveFactor":[0,0,0],"alphaMode":"OPAQUE","doubleSided":false},{"name":"vmd_mat_cindex_292","pbrMetallicRoughness":{"baseColorFactor":[0.65,0.39,0.39,1],"metallicFactor":0,"roughnessFactor":0.96},"emissiveFactor":[0,0,0],"alphaMode":"OPAQUE","doubleSided":false},{"name":"vmd_mat_cindex_365","pbrMetallicRoughness":{"baseColorFactor":[0.65,0.49,0.49,1],"metallicFactor":0,"roughnessFactor":0.96},"emissiveFactor":[0,0,0],"alphaMode":"OPAQUE","doubleSided":false},{"name":"vmd_mat_cindex_389","pbrMetallicRoughness":{"baseColorFactor":[0.65,0.52,0.52,1],"metallicFactor":0,"roughnessFactor":0.96},"emissiveFactor":[0,0,0],"alphaMode":"OPAQUE","doubleSided":false},{"name":"vmd_mat_cindex_386","pbrMetallicRoughness":{"baseColorFactor":[0.65,0.51,0.51,1],"metallicFactor":0,"roughnessFactor":0.96},"emissiveFactor":[0,0,0],"alphaMode":"OPAQUE","doubleSided":false},{"name":"vmd_mat_cindex_371","pbrMetallicRoughness":{"baseColorFactor":[0.65,0.49,0.49,1],"metallicFactor":0,"roughnessFactor":0.96},"emissiveFactor":[0,0,0],"alphaMode":"OPAQUE","doubleSided":false},{"name":"vmd_mat_cindex_281","pbrMetallicRoughness":{"baseColorFactor":[0.65,0.38,0.38,1],"metallicFactor":0,"roughnessFactor":0.96},"emissiveFactor":[0,0,0],"alphaMode":"OPAQUE","doubleSided":false},{"name":"vmd_mat_cindex_275","pbrMetallicRoughness":{"baseColorFactor":[0.65,0.37,0.37,1],"metallicFactor":0,"roughnessFactor":0.96},"emissiveFactor":[0,0,0],"alphaMode":"OPAQUE","doubleSided":false},{"name":"vmd_mat_cindex_301","pbrMetallicRoughness":{"baseColorFactor":[0.65,0.41,0.41,1],"metallicFactor":0,"roughnessFactor":0.96},"emissiveFactor":[0,0,0],"alphaMode":"OPAQUE","doubleSided":false},{"name":"vmd_mat_cindex_277","pbrMetallicRoughness":{"baseColorFactor":[0.65,0.38,0.38,1],"metallicFactor":0,"roughnessFactor":0.96},"emissiveFactor":[0,0,0],"alphaMode":"OPAQUE","doubleSided":false},{"name":"vmd_mat_cindex_318","pbrMetallicRoughness":{"baseColorFactor":[0.65,0.43,0.43,1],"metallicFactor":0,"roughnessFactor":0.96},"emissiveFactor":[0,0,0],"alphaMode":"OPAQUE","doubleSided":false},{"name":"vmd_mat_cindex_198","pbrMetallicRoughness":{"baseColorFactor":[0.65,0.27,0.27,1],"metallicFactor":0,"roughnessFactor":0.96},"emissiveFactor":[0,0,0],"alphaMode":"OPAQUE","doubleSided":false},{"name":"vmd_mat_cindex_190","pbrMetallicRoughness":{"baseColorFactor":[0.65,0.26,0.26,1],"metallicFactor":0,"roughnessFactor":0.96},"emissiveFactor":[0,0,0],"alphaMode":"OPAQUE","doubleSided":false},{"name":"vmd_mat_cindex_217","pbrMetallicRoughness":{"baseColorFactor":[0.65,0.3,0.3,1],"metallicFactor":0,"roughnessFactor":0.96},"emissiveFactor":[0,0,0],"alphaMode":"OPAQUE","doubleSided":false},{"name":"vmd_mat_cindex_209","pbrMetallicRoughness":{"baseColorFactor":[0.65,0.29,0.29,1],"metallicFactor":0,"roughnessFactor":0.96},"emissiveFactor":[0,0,0],"alphaMode":"OPAQUE","doubleSided":false},{"name":"vmd_mat_cindex_235","pbrMetallicRoughness":{"baseColorFactor":[0.65,0.32,0.32,1],"metallicFactor":0,"roughnessFactor":0.96},"emissiveFactor":[0,0,0],"alphaMode":"OPAQUE","doubleSided":false},{"name":"vmd_mat_cindex_242","pbrMetallicRoughness":{"baseColorFactor":[0.65,0.33,0.33,1],"metallicFactor":0,"roughnessFactor":0.96},"emissiveFactor":[0,0,0],"alphaMode":"OPAQUE","doubleSided":false},{"name":"vmd_mat_cindex_270","pbrMetallicRoughness":{"baseColorFactor":[0.65,0.37,0.37,1],"metallicFactor":0,"roughnessFactor":0.96},"emissiveFactor":[0,0,0],"alphaMode":"OPAQUE","doubleSided":false},{"name":"vmd_mat_cindex_227","pbrMetallicRoughness":{"baseColorFactor":[0.65,0.31,0.31,1],"metallicFactor":0,"roughnessFactor":0.96},"emissiveFactor":[0,0,0],"alphaMode":"OPAQUE","doubleSided":false},{"name":"vmd_mat_cindex_10","pbrMetallicRoughness":{"baseColorFactor":[0.16,0.49,0.49,1],"metallicFactor":0,"roughnessFactor":0.96},"emissiveFactor":[0,0,0],"alphaMode":"OPAQUE","doubleSided":false}],"meshes":[{"name":"vmd_mol1_rep0_1","primitives":[{"attributes":{"POSITION":0,"NORMAL":1},"indices":2,"material":0,"mode":4},{"attributes":{"POSITION":0,"NORMAL":1},"indices":3,"material":1,"mode":4},{"attributes":{"POSITION":0,"NORMAL":1},"indices":4,"material":2,"mode":4},{"attributes":{"POSITION":0,"NORMAL":1},"indices":5,"material":3,"mode":4},{"attributes":{"POSITION":0,"NORMAL":1},"indices":6,"material":4,"mode":4},{"attributes":{"POSITION":0,"NORMAL":1},"indices":7,"material":5,"mode":4},{"attributes":{"POSITION":0,"NORMAL":1},"indices":8,"material":6,"mode":4},{"attributes":{"POSITION":0,"NORMAL":1},"indices":9,"material":7,"mode":4},{"attributes":{"POSITION":0,"NORMAL":1},"indices":10,"material":8,"mode":4},{"attributes":{"POSITION":0,"NORMAL":1},"indices":11,"material":9,"mode":4},{"attributes":{"POSITION":0,"NORMAL":1},"indices":12,"material":10,"mode":4},{"attributes":{"POSITION":0,"NORMAL":1},"indices":13,"material":11,"mode":4},{"attributes":{"POSITION":0,"NORMAL":1},"indices":14,"material":12,"mode":4},{"attributes":{"POSITION":0,"NORMAL":1},"indices":15,"material":13,"mode":4},{"attributes":{"POSITION":0,"NORMAL":1},"indices":16,"material":14,"mode":4},{"attributes":{"POSITION":0,"NORMAL":1},"indices":17,"material":15,"mode":4},{"attributes":{"POSITION":0,"NORMAL":1},"indices":18,"material":16,"mode":4},{"attributes":{"POSITION":0,"NORMAL":1},"indices":19,"material":17,"mode":4},{"attributes":{"POSITION":0,"NORMAL":1},"indices":20,"material":18,"mode":4},{"attributes":{"POSITION":0,"NORMAL":1},"indices":21,"material":19,"mode":4},{"attributes":{"POSITION":0,"NORMAL":1},"indices":22,"material":20,"mode":4},{"attributes":{"POSITION":0,"NORMAL":1},"indices":23,"material":21,"mode":4},{"attributes":{"POSITION":0,"NORMAL":1},"indices":24,"material":22,"mode":4},{"attributes":{"POSITION":0,"NORMAL":1},"indices":25,"material":23,"mode":4},{"attributes":{"POSITION":0,"NORMAL":1},"indices":26,"material":24,"mode":4},{"attributes":{"POSITION":0,"NORMAL":1},"indices":27,"material":25,"mode":4},{"attributes":{"POSITION":0,"NORMAL":1},"indices":28,"material":26,"mode":4},{"attributes":{"POSITION":0,"NORMAL":1},"indices":29,"material":27,"mode":4},{"attributes":{"POSITION":0,"NORMAL":1},"indices":30,"material":28,"mode":4},{"attributes":{"POSITION":0,"NORMAL":1},"indices":31,"material":29,"mode":4},{"attributes":{"POSITION":0,"NORMAL":1},"indices":32,"material":30,"mode":4},{"attributes":{"POSITION":0,"NORMAL":1},"indices":33,"material":31,"mode":4},{"attributes":{"POSITION":0,"NORMAL":1},"indices":34,"material":32,"mode":4},{"attributes":{"POSITION":0,"NORMAL":1},"indices":35,"material":33,"mode":4},{"attributes":{"POSITION":0,"NORMAL":1},"indices":36,"material":34,"mode":4},{"attributes":{"POSITION":0,"NORMAL":1},"indices":37,"material":35,"mode":4},{"attributes":{"POSITION":0,"NORMAL":1},"indices":38,"material":36,"mode":4}]},{"name":"vmd_mol1_rep1_1","primitives":[{"attributes":{"POSITION":39,"NORMAL":40},"indices":41,"material":37,"mode":4}]}],"nodes":[{"name":"vmd_mol1_rep0","mesh":0},{"name":"vmd_mol1_rep1","mesh":1}],"scene":0,"scenes":[{"nodes":[0,1]}]}
